<svg viewBox="0 0 60 60" xmlns="http://www.w3.org/2000/svg" aria-hidden="true">
  <path d="M30 1C37.7481 1 45.0272 4.01543 50.5059 9.49414C55.9846 14.9729 59 22.2519 59 30C59 37.7481 55.9846 45.0272 50.5059 50.5059C45.0272 55.9846 37.7481 59 30 59C22.2519 59 14.9729 55.9846 9.49414 50.5059C4.01543 45.0272 1 37.7481 1 30C1 22.2519 4.01542 14.9729 9.49414 9.49414C14.9729 4.01542 22.2519 1 30 1Z" fill="#000" stroke="#fff" stroke-width="2"/>
  <g transform="translate(27.62,15.92)">
    <path d="M1.36 21.44C1.04 20.36 0.72 18.84 0.72 17.6C0.72 15.08 1.76 13.16 4.4 11.76C6.32 10.8 7.6 10.04 7.6 7.92C7.6 5.6 5.48 3.72 3.48 3.72C3.28 3.72 3.04 3.76 2.84 3.8C1.72 3.8 0.12 2.48 0.12 1.12C0.12 0.52 0.44 0 1.16 0C4.8 0 9.24 4.44 9.24 8.88C9.24 12.32 8.04 14 5.12 15.44C3.36 16.32 2.32 17.16 2.32 18.8C2.32 19.96 2.48 20.96 2.56 21.4C2.44 21.56 2.2 21.68 1.92 21.68C1.72 21.68 1.52 21.6 1.36 21.44ZM1.96 28.72C0.88 28.72 0 27.84 0 26.76C0 25.64 0.88 24.8 1.96 24.8C3.08 24.8 3.92 25.64 3.92 26.76C3.92 27.84 3.08 28.72 1.96 28.72Z" fill="#fff"/>
  </g>
</svg>
